<svg version="1.2" baseProfile="tiny-ps" xmlns="http://www.w3.org/2000/svg" viewBox="0 0 30 30" width="30" height="30">
	<title>andrioid</title>
	<style>
		tspan { white-space:pre }
		.shp0 { fill: #757575 } 
	</style>
	<path id="Shape 44" class="shp0" d="M25.64 9.51C24.71 9.51 23.96 10.27 23.96 11.22L23.96 17.9C23.96 18.84 24.71 19.61 25.64 19.61C26.57 19.61 27.32 18.84 27.32 17.9L27.32 11.22C27.32 10.27 26.57 9.51 25.64 9.51ZM5.33 9.51C4.4 9.51 3.65 10.27 3.65 11.22L3.65 17.9C3.65 18.84 4.4 19.61 5.33 19.61C6.26 19.61 7.02 18.84 7.02 17.9L7.02 11.22C7.02 10.27 6.26 9.51 5.33 9.51ZM8.03 9.56L8.03 21.77C8.03 22.49 8.62 23.08 9.34 23.08L10.84 23.08L10.84 26.8C10.84 27.74 11.6 28.51 12.53 28.51C13.46 28.51 14.21 27.74 14.21 26.8L14.21 23.08L16.83 23.08L16.83 26.8C16.83 27.74 17.58 28.51 18.51 28.51C19.44 28.51 20.2 27.74 20.2 26.8L20.2 23.08L21.7 23.08C22.42 23.08 23.01 22.49 23.01 21.77L23.01 9.56L8.03 9.56ZM19.04 3.23L20.42 1.22C20.5 1.1 20.48 0.95 20.38 0.87C20.27 0.8 20.11 0.84 20.03 0.96L18.59 3.04C17.65 2.67 16.6 2.46 15.49 2.46C14.38 2.46 13.33 2.67 12.38 3.04L10.94 0.96C10.86 0.84 10.7 0.8 10.6 0.87C10.49 0.95 10.47 1.1 10.55 1.22L11.94 3.23C9.74 4.26 8.19 6.2 8 8.47L22.98 8.47C22.78 6.2 21.24 4.26 19.04 3.23ZM12.33 6.4C11.87 6.4 11.5 6.03 11.5 5.57C11.5 5.11 11.87 4.74 12.33 4.74C12.78 4.74 13.15 5.11 13.15 5.57C13.15 6.03 12.78 6.4 12.33 6.4ZM18.75 6.4C18.29 6.4 17.92 6.03 17.92 5.57C17.92 5.11 18.29 4.74 18.75 4.74C19.21 4.74 19.58 5.11 19.58 5.57C19.58 6.03 19.21 6.4 18.75 6.4Z" />
</svg>