<svg version="1.2" baseProfile="tiny-ps" xmlns="http://www.w3.org/2000/svg" viewBox="0 0 30 30" width="30" height="30">
	<title>apple</title>
	<style>
		tspan { white-space:pre }
		.shp0 { fill: #757575 } 
	</style>
	<path id="Shape 45" class="shp0" d="M26 10.44C24.61 8.71 22.67 7.71 20.83 7.71C18.39 7.71 17.36 8.86 15.67 8.86C13.93 8.86 12.61 7.71 10.51 7.71C8.44 7.71 6.24 8.97 4.85 11.11C2.88 14.13 3.22 19.81 6.4 24.65C7.53 26.38 9.05 28.33 11.04 28.35C12.8 28.36 13.3 27.22 15.7 27.21C18.1 27.19 18.55 28.36 20.31 28.34C22.3 28.32 23.9 26.17 25.04 24.44C25.85 23.2 26.16 22.57 26.79 21.17C22.19 19.43 21.45 12.93 26 10.44ZM18.98 5.77C19.86 4.64 20.54 3.04 20.29 1.4C18.85 1.5 17.16 2.42 16.17 3.62C15.28 4.7 14.54 6.32 14.82 7.88C16.4 7.93 18.03 6.99 18.98 5.77Z" />
</svg>