<svg version="1.2" baseProfile="tiny-ps" xmlns="http://www.w3.org/2000/svg" viewBox="0 0 33 33" width="33" height="33">
	<title>fb_icon</title>
	<style>
		tspan { white-space:pre }
		.shp0 { fill: #5c5c5c } 
	</style>
	<path id="Shape 52" class="shp0" d="M16.76 1C8.61 1 2.01 7.72 2.01 16C2.01 24.29 8.61 31 16.76 31C24.92 31 31.52 24.29 31.52 16C31.52 7.72 24.92 1 16.76 1ZM20.67 15.94L18.12 15.94C18.12 20.09 18.12 25.2 18.12 25.2L14.33 25.2C14.33 25.2 14.33 20.14 14.33 15.94L12.53 15.94L12.53 12.67L14.33 12.67L14.33 10.55C14.33 9.03 15.04 6.66 18.15 6.66L20.96 6.67L20.96 9.85C20.96 9.85 19.25 9.85 18.92 9.85C18.59 9.85 18.12 10.02 18.12 10.74L18.12 12.67L21 12.67L20.67 15.94Z" />
</svg>