<svg version="1.2" baseProfile="tiny-ps" xmlns="http://www.w3.org/2000/svg" viewBox="0 0 30 30" width="30" height="30">
	<title>gift</title>
	<style>
		tspan { white-space:pre }
		.shp0 { fill: #ffffff } 
	</style>
	<path id="Forma 1" class="shp0" d="M26.04 15L18.96 15L18.96 21.78L16.03 18.85L12.96 21.78L12.96 15L4.96 15L4.96 27L26.04 27L26.04 15ZM4 13.99L4.96 13.99L26.04 13.99L27 13.99L27 6.91L21.54 6.91C21.82 6.79 22.1 6.42 22.38 6.29C22.38 6.28 22.39 6.28 22.4 6.28C22.62 6.17 22.88 6.04 23.16 5.89C24.52 5.17 26.19 4 24.91 2.52C24.28 1.79 23.04 2 22.22 2.16C21.37 2.33 20.53 2.6 19.75 2.98C18.3 3.67 17.07 4.66 16.07 5.89C15.97 6.02 15.87 6.15 15.77 6.28C15.73 6.34 15.68 6.4 15.64 6.46C15.61 6.49 15.59 6.53 15.58 6.56C15.56 6.53 15.54 6.49 15.51 6.46C15.47 6.4 15.42 6.34 15.38 6.28C15.28 6.15 15.18 6.02 15.08 5.89C14.08 4.66 12.85 3.67 11.4 2.98C10.62 2.6 9.78 2.33 8.93 2.16C8.11 2 6.87 1.79 6.24 2.52C4.96 4 6.63 5.17 7.99 5.89C8.27 6.04 8.53 6.17 8.76 6.28C8.76 6.28 8.77 6.28 8.78 6.29C9.05 6.42 9.33 6.79 9.62 6.91L4 6.91L4 13.99ZM19.89 4.54C20.93 3.99 22.37 3.36 23.57 3.48C24.29 3.55 23.39 4.04 23.17 4.18C22.89 4.35 22.6 4.53 22.31 4.68C21.7 5 21.08 5.29 20.43 5.52C20 5.66 19.57 5.79 19.13 5.89C18.68 6 18.23 6.09 17.77 6.16C17.86 6.07 17.95 5.98 18.04 5.89C18.59 5.36 19.22 4.9 19.89 4.54ZM10.72 5.52C10.07 5.29 9.45 5 8.85 4.68C8.55 4.53 8.27 4.35 7.98 4.18C7.76 4.04 6.86 3.55 7.58 3.48C8.79 3.36 10.23 3.99 11.26 4.54C11.93 4.9 12.56 5.36 13.12 5.89C13.21 5.98 13.3 6.07 13.38 6.16C12.92 6.09 12.47 6 12.02 5.89C11.59 5.79 11.15 5.66 10.72 5.52Z" />
</svg>