<svg version="1.2" baseProfile="tiny-ps" xmlns="http://www.w3.org/2000/svg" viewBox="0 0 23 22" width="23" height="22">
	<title>Shape 5 copy</title>
	<style>
		tspan { white-space:pre }
		.shp0 { fill: #675190 } 
	</style>
	<path id="Shape 5 copy" class="shp0" d="M11.7 1.31C6 1.31 1.38 5.89 1.38 11.54C1.38 15.18 3.29 18.36 6.16 20.18C3.73 18.39 2.14 15.44 2.13 12.11C2.14 6.64 6.41 2.22 11.7 2.21C16.98 2.22 21.24 6.64 21.25 12.11C21.25 15.44 19.66 18.39 17.22 20.19C20.1 18.37 22 15.18 22 11.54C22 5.89 17.39 1.31 11.7 1.31ZM11.63 4.29C7.77 4.29 4.64 7.4 4.64 11.23C4.64 13.57 5.82 15.64 7.61 16.9C6.22 15.69 5.33 13.87 5.33 11.83C5.34 8.19 8.15 5.25 11.63 5.24C15.1 5.25 17.92 8.19 17.92 11.83C17.92 13.86 17.04 15.68 15.65 16.88C17.44 15.63 18.61 13.56 18.61 11.23C18.61 7.4 15.48 4.29 11.63 4.29ZM11.62 7.06C9.28 7.06 7.39 8.94 7.39 11.25C7.39 12.4 7.86 13.44 8.61 14.2C8.15 13.54 7.88 12.73 7.88 11.84C7.88 9.65 9.54 7.88 11.59 7.87C13.64 7.88 15.29 9.65 15.3 11.84C15.3 12.79 14.98 13.66 14.46 14.35C15.31 13.58 15.84 12.48 15.84 11.25C15.84 8.94 13.95 7.06 11.62 7.06ZM13.82 12.46C13.82 11.04 12.8 10.39 11.54 10.39C10.28 10.39 9.27 11.04 9.27 12.46C9.27 12.69 9.29 12.91 9.34 13.12C9.34 13.12 9.34 13.12 9.34 13.12L10.32 20.3C10.35 20.52 10.54 20.7 10.74 20.7L12.34 20.7C12.54 20.7 12.73 20.52 12.76 20.3L13.74 13.12C13.74 13.11 13.74 13.11 13.74 13.1C13.79 12.9 13.82 12.68 13.82 12.46Z" />
</svg>