<svg version="1.2" baseProfile="tiny-ps" xmlns="http://www.w3.org/2000/svg" viewBox="0 0 32 32" width="32" height="32">
	<title>mouse</title>
	<style>
		tspan { white-space:pre }
		.shp0 { fill: #ffffff } 
	</style>
	<path id="Forma 1" class="shp0" d="M9 17.01L9 22.15C9 26.48 12.36 29.99 16.5 29.99C20.64 29.99 24 26.48 24 22.15L24 17.12C22.08 18.13 16.85 20.07 9 17.01ZM17.46 6.06C17.46 4.74 19.15 4.65 19.15 4.65C24.26 4.65 23.6 0.01 23.6 0.01L22.08 0.01C22.08 3.85 18.8 3.43 18.8 3.43C16.04 3.43 15.46 5.03 15.37 6.08C11.77 6.65 9 9.9 9 13.82L9 16.01C11.42 17.03 17.96 19.2 24 16L24 13.82C24 9.84 21.15 6.55 17.46 6.06ZM17.8 13.51C17.8 14.26 17.21 14.87 16.5 14.87C15.78 14.87 15.2 14.26 15.2 13.51L15.2 9.8C15.2 9.05 15.78 8.44 16.5 8.44C17.22 8.44 17.8 9.05 17.8 9.8L17.8 13.51Z" />
</svg>