<svg version="1.2" baseProfile="tiny-ps" xmlns="http://www.w3.org/2000/svg" viewBox="0 0 22 22" width="22" height="22">
	<title>net</title>
	<style>
		tspan { white-space:pre }
		.shp0 { fill: #675190 } 
	</style>
	<path id="Forma 1 copy 4" class="shp0" d="M6 12.34L6 15.77C6 18.66 8.24 21 11 21C13.76 21 16 18.66 16 15.77L16 12.42C14.73 13.09 11.23 14.38 6 12.34ZM11.65 5.03C11.64 4.15 12.77 4.1 12.77 4.1C16.18 4.1 15.74 1 15.74 1L14.72 1C14.72 3.56 12.54 3.28 12.54 3.28C10.7 3.28 10.31 4.35 10.25 5.05C7.85 5.43 6 7.59 6 10.21L6 11.67C7.61 12.36 11.97 13.8 16 11.67L16 10.21C16 7.55 14.1 5.36 11.65 5.03ZM11.87 10C11.87 10.51 11.48 10.91 11 10.91C10.52 10.91 10.14 10.51 10.14 10L10.14 7.53C10.14 7.03 10.52 6.62 11 6.62C11.48 6.62 11.87 7.03 11.87 7.53L11.87 10Z" />
</svg>