<svg version="1.2" baseProfile="tiny-ps" xmlns="http://www.w3.org/2000/svg" viewBox="0 0 22 21" width="22" height="21">
	<title>phone</title>
	<style>
		tspan { white-space:pre }
		.shp0 { fill: #675190 } 
	</style>
	<path id="Shape 4 copy" class="shp0" d="M8.8 12.07C10.3 13.57 12.04 15.01 12.73 14.32C13.71 13.34 14.32 12.48 16.48 14.22C18.65 15.96 16.99 17.12 16.03 18.08C14.94 19.17 10.84 18.13 6.79 14.09C2.74 10.04 1.7 5.94 2.8 4.84C3.75 3.89 4.91 2.23 6.65 4.4C8.4 6.56 7.54 7.17 6.56 8.15C5.87 8.84 7.3 10.57 8.8 12.07ZM14.84 9.94L13.43 9.91C13.73 9.57 13.91 9.11 13.91 8.61C13.91 7.52 13.04 6.64 11.96 6.64C11.47 6.64 11.02 6.82 10.67 7.13L10.64 5.7C11.04 5.51 11.49 5.41 11.96 5.41C13.71 5.41 15.12 6.84 15.12 8.61C15.12 9.09 15.02 9.54 14.84 9.94ZM17.71 10L16.35 9.97C16.46 9.57 16.52 9.15 16.52 8.72C16.52 6.16 14.47 4.08 11.95 4.08C11.48 4.08 11.03 4.15 10.61 4.28L10.57 2.89C11.02 2.79 11.47 2.73 11.95 2.73C15.21 2.73 17.85 5.41 17.85 8.72C17.85 9.16 17.8 9.59 17.71 10Z" />
</svg>