<svg version="1.2" baseProfile="tiny-ps" xmlns="http://www.w3.org/2000/svg" viewBox="0 0 30 30" width="30" height="30">
	<title>phone_02</title>
	<style>
		tspan { white-space:pre }
		.shp0 { fill: #84b82a } 
	</style>
	<path id="Shape 50" class="shp0" d="M19.88 3L9.12 3C7.95 3 7 3.98 7 5.17L7 24.83C7 26.02 7.95 27 9.12 27L19.88 27C21.05 27 22 26.02 22 24.83L22 5.17C22 3.98 21.05 3 19.88 3ZM12.99 4.56L15.97 4.56C16.14 4.56 16.27 4.68 16.27 4.83C16.27 4.99 16.14 5.11 15.97 5.11L12.99 5.11C12.83 5.11 12.69 4.99 12.69 4.83C12.69 4.68 12.83 4.56 12.99 4.56ZM14.48 25.89C14.09 25.89 13.76 25.56 13.76 25.16C13.76 24.75 14.09 24.42 14.48 24.42C14.88 24.42 15.2 24.75 15.2 25.16C15.2 25.56 14.88 25.89 14.48 25.89ZM20 23.5L8.97 23.5L8.97 6.5L20 6.5L20 23.5Z" />
</svg>