<svg version="1.2" baseProfile="tiny-ps" xmlns="http://www.w3.org/2000/svg" viewBox="0 0 22 21" width="22" height="21">
	<title>tv</title>
	<style>
		tspan { white-space:pre }
		.shp0 { fill: #675190 } 
	</style>
	<path id="Rounded Rectangle 1 copy 4" class="shp0" d="M18.7 5.79L13.61 5.79L15.53 3.6C15.71 3.41 15.69 3.13 15.51 2.96C15.32 2.79 15.02 2.8 14.85 2.99L12.74 5.29L10.16 1.21C10.02 1 9.73 0.93 9.52 1.06L9.52 1.06C9.3 1.19 9.23 1.47 9.36 1.68L11.9 5.79L3.3 5.79C2.03 5.79 1 6.78 1 8L1 16.09C1 17.31 2.03 18.31 3.3 18.31L18.7 18.31C19.96 18.31 21 17.31 21 16.09L21 8C21 6.78 19.96 5.79 18.7 5.79ZM19.27 15.74C19.27 16.35 18.76 16.85 18.12 16.85L3.87 16.85C3.24 16.85 2.72 16.35 2.72 15.74L2.72 8.36C2.72 7.75 3.24 7.25 3.87 7.25L18.12 7.25C18.76 7.25 19.27 7.75 19.27 8.36L19.27 15.74ZM6.22 18.87L15.53 18.87C15.84 18.87 16.09 19.13 16.09 19.44C16.09 19.75 15.84 20 15.53 20L6.22 20C5.91 20 5.66 19.75 5.66 19.44C5.66 19.13 5.91 18.87 6.22 18.87Z" />
</svg>