<svg version="1.2" baseProfile="tiny-ps" xmlns="http://www.w3.org/2000/svg" viewBox="0 0 33 33" width="33" height="33">
	<title>tweet_icon</title>
	<style>
		tspan { white-space:pre }
		.shp0 { fill: #5c5c5c } 
	</style>
	<path id="Shape 53" class="shp0" d="M16.3 2C8.15 2 1.54 8.72 1.54 17C1.54 25.29 8.15 32 16.3 32C24.45 32 31.06 25.29 31.06 17C31.06 8.72 24.45 2 16.3 2ZM23.74 13.98C23.74 14.14 23.75 14.3 23.75 14.47C23.75 19.46 20.01 25.22 13.16 25.22C11.06 25.22 9.11 24.6 7.46 23.52C7.75 23.56 8.05 23.58 8.35 23.58C10.09 23.58 11.7 22.97 12.97 21.96C11.34 21.93 9.97 20.83 9.49 19.33C9.72 19.38 9.95 19.4 10.19 19.4C10.53 19.4 10.86 19.36 11.17 19.27C9.47 18.92 8.19 17.39 8.19 15.56C8.19 15.54 8.19 15.53 8.19 15.51C8.69 15.8 9.27 15.97 9.88 15.99C8.88 15.31 8.22 14.15 8.22 12.84C8.22 12.15 8.4 11.5 8.72 10.94C10.56 13.23 13.3 14.73 16.39 14.89C16.33 14.61 16.29 14.32 16.29 14.03C16.29 11.94 17.96 10.25 20.01 10.25C21.08 10.25 22.05 10.71 22.73 11.44C23.58 11.27 24.37 10.96 25.09 10.52C24.81 11.41 24.22 12.15 23.46 12.61C24.21 12.52 24.93 12.32 25.59 12.02C25.09 12.78 24.46 13.44 23.74 13.98Z" />
</svg>