<svg version="1.2" baseProfile="tiny-ps" xmlns="http://www.w3.org/2000/svg" viewBox="0 0 73 56" width="73" height="56">
	<title>vectra_icon</title>
	<style>
		tspan { white-space:pre }
		.shp0 { fill: #675190 } 
	</style>
	<path id="Shape 51" class="shp0" d="M20.37 25.93L16.84 27.37L16.84 34.52C16.84 35.62 17.73 36.51 18.83 36.51L40.62 36.51L36.92 32.82L20.53 32.82L20.53 25.86L20.37 25.93ZM56.18 44.63L64.96 35.85C65.8 35.01 65.62 33.47 64.55 32.4L59.5 27.35C59.44 27.27 59.38 27.19 59.31 27.12L55.8 23.59L55.33 23.12C54.64 22.42 53.77 22.09 53.03 22.15C53.02 22.15 53.02 22.15 53.01 22.15C52.92 22.16 52.84 22.17 52.76 22.19C52.75 22.19 52.74 22.19 52.72 22.19C52.64 22.21 52.56 22.24 52.48 22.27C52.46 22.28 52.44 22.29 52.43 22.3C52.37 22.33 52.31 22.36 52.26 22.39C52.24 22.41 52.21 22.42 52.19 22.43C52.13 22.48 52.07 22.53 52.01 22.59C52.01 22.59 52 22.59 52 22.59L51.5 23.09C50.96 23.63 50.92 24.52 51.29 25.37C50.45 24.99 49.56 25.03 49.02 25.57L48.52 26.07C47.98 26.61 47.94 27.49 48.32 28.34C47.47 27.97 46.59 28.01 46.04 28.55L45.55 29.05C45.54 29.05 45.54 29.06 45.54 29.06C45.48 29.12 45.43 29.18 45.39 29.24C45.37 29.26 45.36 29.29 45.34 29.31C45.31 29.36 45.28 29.42 45.25 29.47C45.24 29.49 45.23 29.51 45.23 29.53C45.19 29.61 45.17 29.69 45.15 29.77C45.14 29.79 45.14 29.8 45.14 29.81C45.12 29.89 45.11 29.98 45.1 30.06C45.1 30.07 45.1 30.07 45.1 30.08C45.06 30.53 45.18 31.03 45.43 31.51L40.87 26.96L40.56 26.65L40.13 26.21C39.32 25.4 38.21 25.15 37.4 25.52C37.39 25.53 37.38 25.54 37.37 25.54C37.31 25.57 37.24 25.61 37.19 25.65C37.17 25.66 37.14 25.67 37.12 25.69C37.06 25.74 37 25.79 36.94 25.84C36.94 25.85 36.93 25.85 36.93 25.85L36.43 26.35C36.43 26.35 36.43 26.36 36.42 26.36C36.37 26.42 36.31 26.48 36.27 26.55C36.25 26.56 36.24 26.59 36.23 26.61C36.19 26.66 36.15 26.73 36.12 26.79C36.12 26.8 36.11 26.81 36.1 26.82C35.73 27.63 35.98 28.74 36.79 29.55L37.23 29.99L37.53 30.29L47.11 39.87L44.3 39.73L43.82 39.71L43.14 39.69C41.88 39.66 40.8 40.32 40.43 41.25C40.43 41.27 40.42 41.28 40.42 41.3C40.39 41.37 40.37 41.45 40.35 41.52C40.34 41.55 40.34 41.58 40.33 41.61C40.32 41.7 40.3 41.79 40.3 41.88C40.3 41.88 40.3 41.89 40.3 41.89L40.33 42.43C40.33 42.43 40.33 42.43 40.33 42.44C40.33 42.53 40.34 42.62 40.35 42.71C40.35 42.74 40.36 42.77 40.36 42.79C40.37 42.87 40.39 42.95 40.42 43.03C40.42 43.04 40.42 43.05 40.43 43.07C40.74 44.02 41.78 44.75 43.04 44.78L43.72 44.8L44.2 44.81L45.84 44.92C45.84 44.92 45.84 44.92 45.84 44.92L47.36 44.97L49.93 45.06C49.96 45.06 49.99 45.06 50.02 45.06L54.49 45.36C55.16 45.38 55.71 45.1 56.15 44.66C56.16 44.65 56.17 44.64 56.18 44.63ZM17.76 16.23C18.44 15.96 19.14 15.82 19.85 15.82C20.08 15.82 20.31 15.84 20.53 15.87L20.53 9.7L53.69 9.7L53.69 19.95C54.84 20.08 56 20.64 56.89 21.54L57.38 22.02L57.39 22.04L57.39 8C57.39 6.9 56.49 6 55.39 6L18.83 6C17.73 6 16.84 6.9 16.84 8L16.84 16.6L17.12 16.49L17.76 16.23ZM14.6 34.47L14.6 25.88L16.84 24.97L16.84 24.97L19.54 23.87L20 23.69L20.65 23.43C21.86 22.94 22.61 21.87 22.57 20.84C22.57 20.82 22.57 20.81 22.57 20.79C22.56 20.71 22.55 20.63 22.54 20.55C22.53 20.52 22.53 20.49 22.52 20.46C22.5 20.37 22.47 20.28 22.44 20.19C22.44 20.18 22.44 20.18 22.43 20.18L22.12 19.41C22.12 19.4 22.12 19.4 22.12 19.4C22.08 19.31 22.04 19.22 21.99 19.14C21.98 19.12 21.96 19.09 21.94 19.07C21.9 19 21.85 18.93 21.8 18.87C21.79 18.86 21.78 18.85 21.77 18.84C21.41 18.43 20.9 18.17 20.31 18.08C20.31 18.08 20.3 18.08 20.29 18.08C20.23 18.07 20.16 18.06 20.09 18.05C20.08 18.05 20.06 18.05 20.05 18.05C19.99 18.05 19.92 18.04 19.86 18.04C19.84 18.04 19.82 18.04 19.81 18.04C19.75 18.05 19.69 18.05 19.63 18.05C19.61 18.05 19.58 18.05 19.56 18.06C19.5 18.06 19.45 18.07 19.39 18.08C19.37 18.08 19.34 18.08 19.32 18.09C19.26 18.1 19.21 18.11 19.15 18.12C19.12 18.13 19.1 18.13 19.07 18.14C19.02 18.15 18.96 18.17 18.9 18.18C18.88 18.19 18.85 18.2 18.83 18.2C18.75 18.23 18.67 18.26 18.59 18.29L17.94 18.55L17.48 18.74L16.84 18.99L16.84 19L10.52 21.57C9.41 22.01 8.69 22.95 8.61 23.9C8.61 23.91 8.6 23.92 8.6 23.92L8.28 34.09C8.26 34.79 8.55 35.35 9 35.81C9.01 35.82 9.02 35.83 9.03 35.84L18.09 44.91C18.96 45.78 20.55 45.59 21.65 44.48L27.39 38.74L18.87 38.74C16.51 38.74 14.6 36.83 14.6 34.47ZM8.45 36.67C7.6 35.82 6.03 36.01 4.95 37.09C3.87 38.17 3.68 39.73 4.54 40.59L13.41 49.46C14.26 50.31 15.83 50.13 16.91 49.05C17.99 47.97 18.17 46.4 17.32 45.55L8.45 36.67ZM69.05 37.09C67.97 36.01 66.4 35.82 65.55 36.67L56.68 45.55C55.82 46.4 56.01 47.97 57.09 49.05C58.17 50.13 59.74 50.32 60.59 49.46L69.46 40.59C70.32 39.73 70.13 38.17 69.05 37.09Z" />
</svg>