<svg version="1.2" baseProfile="tiny-ps" xmlns="http://www.w3.org/2000/svg" viewBox="0 0 30 30" width="30" height="30">
	<title>windows</title>
	<style>
		tspan { white-space:pre }
		.shp0 { fill: #757575 } 
	</style>
	<path id="Shape 46" class="shp0" d="M25.82 4.31C23.53 4.63 21.37 4.93 19.34 5.21C17.42 5.48 15.97 5.73 14.25 5.97C14.25 7.42 14.25 8.86 14.25 10.3C14.25 11.74 14.25 13.18 14.25 14.63C15.97 14.61 17.42 14.6 19.34 14.59C21.37 14.58 23.53 14.57 25.82 14.55C25.82 12.85 25.82 11.14 25.82 9.44C25.82 7.73 25.82 6.02 25.82 4.31L25.82 4.31ZM13.26 6.11C11.67 6.33 9.78 6.54 8.34 6.74C6.97 6.93 5.65 7.12 4.4 7.29C4.4 8.53 4.4 9.76 4.4 10.99C4.4 12.22 4.4 13.45 4.4 14.68C5.65 14.67 6.97 14.67 8.34 14.66C9.78 14.65 11.66 14.64 13.26 14.63C13.26 13.21 13.26 11.79 13.26 10.37C13.26 8.95 13.26 7.53 13.26 6.11L13.26 6.11ZM4.4 15.41C4.4 16.64 4.4 17.87 4.4 19.1C4.4 20.33 4.4 21.56 4.4 22.79C5.65 22.97 6.96 23.15 8.34 23.35C9.77 23.55 11.66 23.76 13.26 23.98C13.26 22.57 13.26 21.15 13.26 19.73C13.26 18.31 13.26 16.89 13.26 15.47C11.66 15.46 9.78 15.45 8.34 15.44C6.96 15.43 5.65 15.42 4.4 15.41L4.4 15.41ZM14.25 24.12C15.97 24.37 17.42 24.62 19.34 24.89C21.37 25.18 23.53 25.48 25.82 25.8C25.82 24.1 25.82 22.39 25.82 20.68C25.82 18.98 25.82 17.27 25.82 15.56C23.53 15.55 21.37 15.53 19.34 15.52C17.42 15.5 15.97 15.49 14.25 15.48C14.25 16.92 14.25 18.36 14.25 19.8C14.25 21.24 14.25 22.68 14.25 24.12Z" />
</svg>