<svg version="1.2" baseProfile="tiny-ps" xmlns="http://www.w3.org/2000/svg" viewBox="0 0 33 33" width="33" height="33">
	<title>yt_icon</title>
	<style>
		tspan { white-space:pre }
		.shp0 { fill: #5c5c5c } 
	</style>
	<path id="Shape 54" class="shp0" d="M10.02 17.45L11.08 17.45L11.07 22.85L12.09 22.85L12.1 17.45L13.15 17.46L13.15 16.54L10.03 16.54L10.02 17.45ZM16.28 12.98C16.42 12.98 16.53 12.94 16.61 12.86C16.69 12.78 16.73 12.67 16.73 12.54L16.73 9.74C16.73 9.63 16.69 9.54 16.61 9.47C16.53 9.4 16.42 9.37 16.28 9.37C16.16 9.37 16.06 9.4 15.98 9.47C15.9 9.54 15.86 9.63 15.86 9.74L15.86 12.54C15.86 12.68 15.9 12.79 15.97 12.86C16.04 12.94 16.14 12.98 16.28 12.98ZM18.52 18.14C18.38 18.14 18.24 18.18 18.1 18.25C17.97 18.32 17.84 18.43 17.72 18.57L17.72 16.54L16.8 16.54L16.8 22.85L17.71 22.85L17.71 22.49C17.83 22.64 17.96 22.74 18.1 22.81C18.24 22.88 18.39 22.91 18.57 22.91C18.84 22.91 19.05 22.83 19.19 22.65C19.33 22.47 19.4 22.22 19.4 21.89L19.4 19.31C19.4 18.93 19.33 18.64 19.17 18.44C19.02 18.24 18.81 18.14 18.52 18.14ZM18.47 21.76C18.47 21.91 18.44 22.02 18.39 22.08C18.34 22.15 18.26 22.18 18.15 22.18C18.07 22.18 18 22.16 17.93 22.13C17.86 22.1 17.79 22.04 17.71 21.97L17.72 19.07C17.78 19 17.84 18.95 17.9 18.92C17.96 18.89 18.03 18.88 18.09 18.88C18.22 18.88 18.31 18.92 18.37 19C18.44 19.08 18.47 19.2 18.47 19.36L18.47 21.76ZM15.22 21.73C15.13 21.83 15.04 21.91 14.94 21.98C14.84 22.05 14.75 22.08 14.69 22.08C14.6 22.08 14.54 22.05 14.5 22C14.47 21.95 14.45 21.87 14.45 21.77L14.45 18.19L13.55 18.19L13.54 22.09C13.54 22.36 13.6 22.57 13.7 22.71C13.81 22.85 13.96 22.92 14.17 22.92C14.34 22.92 14.52 22.87 14.7 22.77C14.88 22.67 15.05 22.53 15.22 22.34L15.22 22.85L16.12 22.85L16.12 18.19L15.22 18.19L15.22 21.73ZM16.25 1.2C8.21 1.2 1.69 7.91 1.69 16.19C1.68 24.47 8.19 31.18 16.23 31.19C24.26 31.19 30.78 24.49 30.79 16.21C30.79 7.93 24.28 1.21 16.25 1.2ZM18.59 8.61L19.61 8.61L19.61 12.54C19.61 12.67 19.63 12.75 19.67 12.81C19.71 12.86 19.78 12.89 19.88 12.89C19.95 12.89 20.05 12.85 20.16 12.78C20.28 12.71 20.38 12.62 20.47 12.5L20.48 8.61L21.5 8.61L21.49 13.74L20.47 13.74L20.47 13.17C20.29 13.38 20.09 13.54 19.89 13.65C19.69 13.76 19.49 13.81 19.3 13.81C19.06 13.81 18.89 13.74 18.77 13.58C18.65 13.43 18.59 13.2 18.59 12.9L18.59 8.61ZM14.82 9.78C14.82 9.38 14.95 9.07 15.23 8.83C15.5 8.6 15.87 8.48 16.33 8.48C16.75 8.48 17.1 8.6 17.37 8.85C17.63 9.1 17.77 9.42 17.77 9.81L17.77 12.46C17.77 12.9 17.63 13.24 17.37 13.49C17.11 13.74 16.74 13.87 16.28 13.87C15.84 13.86 15.48 13.74 15.21 13.48C14.95 13.22 14.81 12.87 14.81 12.44L14.82 9.78ZM12.05 6.78L12.79 9.56L12.86 9.56L13.57 6.78L14.74 6.78L13.4 10.85L13.4 13.73L12.25 13.73L12.26 10.98L10.9 6.78L12.05 6.78ZM25.36 21.42C25.36 23.28 23.89 24.78 22.09 24.78L10.76 24.77C8.96 24.77 7.5 23.27 7.51 21.41L7.51 18.71C7.51 16.85 8.97 15.35 10.77 15.35L22.1 15.36C23.9 15.36 25.36 16.87 25.36 18.72L25.36 21.42ZM21.25 18.08C20.84 18.08 20.51 18.21 20.26 18.46C20 18.72 19.87 19.05 19.87 19.45L19.87 21.54C19.87 21.99 19.99 22.34 20.22 22.6C20.45 22.85 20.77 22.98 21.18 22.98C21.63 22.98 21.96 22.86 22.19 22.62C22.42 22.38 22.53 22.02 22.53 21.54L22.53 21.3L21.6 21.3L21.6 21.51C21.6 21.79 21.57 21.97 21.51 22.05C21.45 22.13 21.35 22.17 21.2 22.17C21.05 22.17 20.95 22.12 20.89 22.03C20.83 21.93 20.8 21.76 20.8 21.51L20.8 20.64L22.53 20.64L22.53 19.45C22.53 19.01 22.42 18.67 22.2 18.44C21.98 18.2 21.66 18.08 21.25 18.08ZM21.6 19.91L20.8 19.91L20.8 19.44C20.8 19.25 20.83 19.11 20.9 19.03C20.96 18.94 21.06 18.9 21.21 18.9C21.34 18.9 21.45 18.94 21.51 19.03C21.57 19.11 21.6 19.25 21.6 19.44L21.6 19.91Z" />
</svg>